HIERARCHY
ROOT Hips
{
	OFFSET 0.00000 0.00000 0.00000
	CHANNELS 6 Xposition Yposition Zposition Zrotation Yrotation Xrotation 
	JOINT LHipJoint
	{
		OFFSET 0 0 0
		CHANNELS 3 Zrotation Yrotation Xrotation
		JOINT LeftUpLeg
		{
			OFFSET 1.32989 -1.57253 0.78074
			CHANNELS 3 Zrotation Yrotation Xrotation
			JOINT LeftLeg
			{
				OFFSET 2.24323 -6.16323 0.00000
				CHANNELS 3 Zrotation Yrotation Xrotation
				JOINT LeftFoot
				{
					OFFSET 2.32677 -6.39275 0.00000
					CHANNELS 3 Zrotation Yrotation Xrotation
					JOINT LeftToeBase
					{
						OFFSET 0.18686 -0.51340 1.95973
						CHANNELS 3 Zrotation Yrotation Xrotation
						End Site
						{
							OFFSET 0.00000 -0.00000 1.02033
						}
					}
				}
			}
		}
	}
	JOINT RHipJoint
	{
		OFFSET 0 0 0
		CHANNELS 3 Zrotation Yrotation Xrotation
		JOINT RightUpLeg
		{
			OFFSET -1.27392 -1.57253 0.78074
			CHANNELS 3 Zrotation Yrotation Xrotation
			JOINT RightLeg
			{
				OFFSET -2.19978 -6.04385 0.00000
				CHANNELS 3 Zrotation Yrotation Xrotation
				JOINT RightFoot
				{
					OFFSET -2.29380 -6.30216 0.00000
					CHANNELS 3 Zrotation Yrotation Xrotation
					JOINT RightToeBase
					{
						OFFSET -0.24624 -0.67655 1.94854
						CHANNELS 3 Zrotation Yrotation Xrotation
						End Site
						{
							OFFSET -0.00000 -0.00000 1.03267
						}
					}
				}
			}
		}
	}
	JOINT LowerBack
	{
		OFFSET 0 0 0
		CHANNELS 3 Zrotation Yrotation Xrotation
		JOINT Spine
		{
			OFFSET -0.05982 2.08655 0.02100
			CHANNELS 3 Zrotation Yrotation Xrotation
			JOINT Spine1
			{
				OFFSET 0.04735 2.08455 -0.01795
				CHANNELS 3 Zrotation Yrotation Xrotation
				JOINT Neck
				{
					OFFSET 0 0 0
					CHANNELS 3 Zrotation Yrotation Xrotation
					JOINT Neck1
					{
						OFFSET -0.10038 1.43781 0.03084
						CHANNELS 3 Zrotation Yrotation Xrotation
						JOINT Head
						{
							OFFSET 0.07701 1.43632 -0.18495
							CHANNELS 3 Zrotation Yrotation Xrotation
							End Site
							{
								OFFSET 0.02744 1.45633 -0.07361
							}
						}
					}
				}
				JOINT LeftShoulder
				{
					OFFSET 0 0 0
					CHANNELS 3 Zrotation Yrotation Xrotation
					JOINT LeftArm
					{
						OFFSET 2.75061 0.74389 0.25227
						CHANNELS 3 Zrotation Yrotation Xrotation
						JOINT LeftForeArm
						{
							OFFSET 4.36901 -0.00000 0.00000
							CHANNELS 3 Zrotation Yrotation Xrotation
							JOINT LeftHand
							{
								OFFSET 3.21737 -0.00000 -0.00000
								CHANNELS 3 Zrotation Yrotation Xrotation
								JOINT LeftFingerBase
								{
									OFFSET 0 0 0
									CHANNELS 3 Zrotation Yrotation Xrotation
									JOINT LeftHandIndex1
									{
										OFFSET 0.56431 -0.00000 0.00000
										CHANNELS 3 Zrotation Yrotation Xrotation
										End Site
										{
											OFFSET 0.45496 -0.00000 0.00000
										}
									}
								}
								JOINT LThumb
								{
									OFFSET 0 0 0
									CHANNELS 3 Zrotation Yrotation Xrotation
									End Site
									{
										OFFSET 0.46191 -0.00000 0.46191
									}
								}
							}
						}
					}
				}
				JOINT RightShoulder
				{
					OFFSET 0 0 0
					CHANNELS 3 Zrotation Yrotation Xrotation
					JOINT RightArm
					{
						OFFSET -2.97379 0.79094 0.48377
						CHANNELS 3 Zrotation Yrotation Xrotation
						JOINT RightForeArm
						{
							OFFSET -4.34118 -0.00000 -0.00000
							CHANNELS 3 Zrotation Yrotation Xrotation
							JOINT RightHand
							{
								OFFSET -3.09531 -0.00000 0.00000
								CHANNELS 3 Zrotation Yrotation Xrotation
								JOINT RightFingerBase
								{
									OFFSET 0 0 0
									CHANNELS 3 Zrotation Yrotation Xrotation
									JOINT RightHandIndex1
									{
										OFFSET -0.59745 -0.00000 0.00000
										CHANNELS 3 Zrotation Yrotation Xrotation
										End Site
										{
											OFFSET -0.48168 -0.00000 0.00000
										}
									}
								}
								JOINT RThumb
								{
									OFFSET 0 0 0
									CHANNELS 3 Zrotation Yrotation Xrotation
									End Site
									{
										OFFSET -0.48903 -0.00000 0.48903
									}
								}
							}
						}
					}
				}
			}
		}
	}
}
MOTION
Frames: 9
Frame Time: .0083333
10.2266 15.6494 7.9217 0 0 0 0 0 0 -21 0 0 0 0 0 0 0 0 0 0 0 0 0 0 21 0 0 0 0 0 0 0 0 0 0 0 0 0 0 0 0 0 0 0 0 0 0 -16 0 0 21 0 0 11 0 0 0 -8 0 0 0 0 0 0 0 0 0 0 0 0 0 0 0 0 0 0 0 0 8 0 0 0 0 0 0 0 0 0 0 0 0 0 0 0 0 0
10.2266 15.6494 7.9217 -166.8090 -76.9978 174.7140 0.0000 0.0000 0.0000 -18.6784 -18.7769 -18.9340 4.9100 13.2817 40.4324 0.7423 13.6472 -26.3364 2.8502 -10.4485 -30.4417 0.0000 0.0000 0.0000 15.6742 -4.3014 -28.9412 -10.5353 -17.7000 61.2628 0.1789 -11.1584 4.7632 -1.6083 7.9975 -22.7063 -9.7632 2.5626 -1.6240 3.0355 3.5798 -0.0419 8.7377 1.7976 0.0721 -0.0512 1.5518 -10.0502 5.6463 1.9125 -7.7090 1.8245 0.8012 -0.7907 0.0000 -0.0000 0.0000 -81.6659 11.3414 41.9378 25.7635 -36.9742 -8.7450 -0.0000 0.0000 -21.6371 15.7761 45.9274 11.4740 -7.1250 0.0000 -0.0000 -40.8355 73.6205 -28.8514 0.0000 -0.0000 0.0000 80.4566 -12.3902 18.6289 -24.9758 36.1793 -8.2756 0.0000 -0.0000 -3.9761 -6.4207 24.4303 -2.6648 7.1250 -0.0000 -0.0000 14.0626 -6.0194 12.9150
10.2215 15.6551 7.9169 -165.8630 -77.0468 173.8560 0.0000 0.0000 0.0000 -18.4154 -18.7386 -19.0277 4.9124 13.2844 40.4427 0.7659 13.5027 -26.3731 2.8991 -10.5299 -30.7103 0.0000 0.0000 0.0000 15.8959 -4.3404 -28.9019 -10.4919 -17.6773 61.1202 0.1821 -11.1593 4.7012 -1.4936 7.7204 -21.8679 -9.7266 2.6025 -1.7784 3.1043 3.6457 -0.0631 8.7982 1.8291 0.1195 0.0080 1.5103 -10.5078 5.2839 1.8193 -6.4431 1.7008 0.8042 -0.3093 -0.0000 -0.0000 0.0000 -81.5239 11.2740 42.1820 25.7096 -36.9205 -8.7126 -0.0000 0.0000 -21.9290 14.8125 45.9964 10.7698 -7.1250 0.0000 -0.0000 -41.9865 73.3137 -29.4770 -0.0000 -0.0000 0.0000 80.2090 -12.2359 18.8989 -25.2067 36.4145 -8.4123 0.0000 -0.0000 -4.1943 -11.8447 20.2085 -4.1437 7.1250 -0.0000 -0.0000 10.6408 -9.6478 8.8654
10.2182 15.6585 7.9171 -165.3470 -77.1136 173.3630 0.0000 0.0000 0.0000 -18.3074 -18.7590 -19.0129 4.9014 13.2719 40.3950 0.7674 13.5492 -26.4315 2.9707 -10.6474 -31.0998 0.0000 0.0000 0.0000 15.9667 -4.4981 -28.9319 -10.4815 -17.6719 61.0860 0.1759 -11.0861 4.7466 -1.4029 7.4924 -21.1826 -9.6562 2.6546 -1.8652 3.0932 3.7226 -0.0501 8.7500 1.8643 0.1701 0.1606 1.4428 -11.0984 4.7489 1.6791 -4.9950 1.5133 0.7821 0.2529 0.0000 0.0000 0.0000 -81.5479 11.1686 41.8746 25.5675 -36.7784 -8.6274 -0.0000 0.0000 -21.5323 14.2712 46.0402 10.3757 -7.1250 0.0000 -0.0000 -42.6371 73.1456 -29.8322 0.0000 0.0000 0.0000 80.1758 -11.9965 18.9094 -25.3688 36.5785 -8.5087 0.0000 -0.0000 -4.2001 -13.5261 18.6747 -4.4046 7.1250 -0.0000 -0.0000 9.5282 -11.0143 7.6414
10.2163 15.6621 7.9139 -165.4760 -77.1454 173.5090 0.0000 0.0000 0.0000 -18.3239 -18.6867 -19.0460 4.8993 13.2694 40.3856 0.7666 13.5482 -26.4245 3.0138 -10.7174 -31.3325 0.0000 0.0000 0.0000 15.9027 -4.6058 -28.9772 -10.4715 -17.6666 61.0530 0.1702 -11.0569 4.8290 -1.3536 7.3649 -20.8009 -9.7577 2.7090 -1.9896 3.0543 3.8108 -0.0278 8.7739 1.9038 0.2400 0.4067 1.3585 -11.6332 4.0095 1.5179 -3.4977 1.2490 0.7391 0.8277 -0.0000 0.0000 0.0000 -81.6275 11.0674 41.4583 25.3749 -36.5847 -8.5123 -0.0000 0.0000 -21.0231 14.2675 45.9233 10.3530 -7.1250 0.0000 -0.0000 -42.3420 73.0664 -29.5396 -0.0000 0.0000 0.0000 80.2357 -11.7805 18.8839 -25.5552 36.7660 -8.6200 0.0000 -0.0000 -4.1555 -12.7244 20.3582 -4.4917 7.1250 -0.0000 -0.0000 10.0817 -9.4077 8.4333
10.2159 15.6600 7.9226 -165.4350 -77.1688 173.4220 0.0000 0.0000 0.0000 -18.3892 -18.9093 -18.9288 4.9012 13.2716 40.3940 0.7368 13.7573 -26.4062 3.0119 -10.7142 -31.3221 0.0000 0.0000 0.0000 15.8249 -4.7660 -28.9958 -10.4639 -17.6626 61.0277 0.1645 -11.0355 4.9209 -1.3446 7.3415 -20.7310 -9.6748 2.7561 -1.9866 3.0456 3.8720 -0.0161 8.7163 1.9338 0.2431 0.3702 1.2532 -12.0441 3.4756 1.3787 -2.0096 1.0995 0.7032 1.3858 -0.0000 0.0000 0.0000 -81.7761 11.0372 41.1432 25.2119 -36.4198 -8.4154 -0.0000 0.0000 -20.8882 14.6081 45.6938 10.5650 -7.1250 0.0000 -0.0000 -41.4215 73.0356 -28.8145 -0.0000 0.0000 0.0000 80.1509 -11.7402 19.1526 -25.8924 37.1022 -8.8226 0.0000 -0.0000 -4.4426 -12.1842 21.6272 -4.5500 7.1250 -0.0000 -0.0000 10.4569 -8.1983 9.0143
10.2161 15.6557 7.9402 -164.8870 -77.1671 172.8210 0.0000 0.0000 0.0000 -18.3818 -19.3199 -18.7555 4.9070 13.2782 40.4191 0.7032 14.0525 -26.4502 2.9978 -10.6914 -31.2462 0.0000 0.0000 0.0000 15.8354 -4.9224 -29.0281 -10.4559 -17.6584 61.0017 0.1535 -10.9960 5.0957 -1.3258 7.2919 -20.5832 -9.3349 2.8119 -1.9089 3.0485 3.9308 -0.0210 8.5179 1.9657 0.2039 0.1459 1.1268 -12.4398 3.1816 1.2403 -0.4947 1.0586 0.6651 1.9601 0.0000 0.0000 0.0000 -81.8420 11.0585 40.9875 25.1477 -36.3546 -8.3773 -0.0000 0.0000 -21.0070 14.6199 45.5547 10.5492 -7.1250 0.0000 -0.0000 -41.0620 72.9451 -28.4677 0.0000 0.0000 0.0000 80.0793 -11.7777 19.4339 -26.2907 37.4943 -9.0640 0.0000 -0.0000 -4.7663 -12.1592 21.6856 -4.5521 7.1250 -0.0000 -0.0000 10.4742 -8.1428 9.0415
10.2156 15.6574 7.9441 -164.3150 -77.1926 172.2450 0.0000 0.0000 0.0000 -18.2595 -19.2656 -18.7917 4.9128 13.2849 40.4445 0.7269 13.8972 -26.4725 3.0436 -10.7653 -31.4923 0.0000 0.0000 0.0000 15.9328 -4.9860 -29.0518 -10.4477 -17.6540 60.9743 0.1461 -10.9886 5.2308 -1.3024 7.2299 -20.3982 -9.1351 2.8467 -1.9277 3.0283 3.9740 -0.0357 8.3813 1.9879 0.2048 0.1208 0.9806 -12.6889 2.7817 1.0614 0.9000 0.9415 0.5928 2.4796 0.0000 0.0000 0.0000 -81.6538 11.0879 41.1118 25.1706 -36.3779 -8.3909 -0.0000 0.0000 -21.2812 14.8185 45.6763 10.7173 -7.1250 0.0000 -0.0000 -41.1645 73.0999 -28.6733 0.0000 0.0000 0.0000 80.1743 -11.7704 19.6406 -26.6507 37.8441 -9.2840 0.0000 -0.0000 -4.8172 -12.2873 21.4937 -4.5627 7.1250 -0.0000 -0.0000 10.3882 -8.3202 8.9276
10.2148 15.6602 7.9400 -164.0440 -77.2935 171.9810 0.0000 0.0000 0.0000 -18.1661 -18.9487 -18.9266 4.9136 13.2858 40.4479 0.7720 13.5795 -26.4976 3.1401 -10.9184 -32.0053 0.0000 0.0000 0.0000 16.0153 -5.0686 -29.0614 -10.4425 -17.6513 60.9573 0.1406 -10.9808 5.3279 -1.3356 7.3178 -20.6603 -9.1189 2.8098 -2.0103 3.0194 3.9312 -0.0508 8.3673 1.9647 0.2462 0.1948 0.8802 -12.8878 2.2030 0.9459 2.3211 0.7484 0.5393 3.0077 -0.0000 -0.0000 0.0000 -81.5574 11.0984 41.0740 25.1078 -36.3140 -8.3537 -0.0000 0.0000 -21.4187 15.1630 45.8620 11.0059 -7.1250 0.0000 -0.0000 -41.2883 73.3513 -28.9756 -0.0000 -0.0000 0.0000 80.1727 -11.7385 20.0606 -26.9796 38.1597 -9.4865 0.0000 -0.0000 -4.7723 -12.4455 21.3143 -4.5864 7.1250 -0.0000 -0.0000 10.2834 -8.4821 8.8009
